<svg id="visual" viewBox="0 0 5000 3000" width="5000" height="3000" xmlns="http://www.w3.org/2000/svg" xmlns:xlink="http://www.w3.org/1999/xlink" version="1.1"><rect x="0" y="0" width="5000" height="3000" fill="#ffffff"></rect><path d="M3938 3000L4000 2937.5C4062 2875 4186 2750 4226.7 2625C4267.3 2500 4224.7 2375 4173.8 2250C4123 2125 4064 2000 3991.5 1875C3919 1750 3833 1625 3840.2 1500C3847.3 1375 3947.7 1250 4007.7 1125C4067.7 1000 4087.3 875 4028.7 750C3970 625 3833 500 3850.3 375C3867.7 250 4039.3 125 4125.2 62.5L4211 0L5000 0L5000 62.5C5000 125 5000 250 5000 375C5000 500 5000 625 5000 750C5000 875 5000 1000 5000 1125C5000 1250 5000 1375 5000 1500C5000 1625 5000 1750 5000 1875C5000 2000 5000 2125 5000 2250C5000 2375 5000 2500 5000 2625C5000 2750 5000 2875 5000 2937.5L5000 3000Z" fill="#0694cc" stroke-linecap="round" stroke-linejoin="miter"></path></svg>